<svg width="24" height="24" viewBox="0 0 24 24" fill="none" xmlns="http://www.w3.org/2000/svg">
<path d="M3.99805 7.99662H19.9914M7.99638 3.99829V7.99662M3.99805 5.99746C3.99805 5.46725 4.20867 4.95875 4.58359 4.58383C4.95851 4.20892 5.467 3.99829 5.99721 3.99829H17.9922C18.5224 3.99829 19.0309 4.20892 19.4058 4.58383C19.7808 4.95875 19.9914 5.46725 19.9914 5.99746V17.9925C19.9914 18.5227 19.7808 19.0312 19.4058 19.4061C19.0309 19.781 18.5224 19.9916 17.9922 19.9916H5.99721C5.467 19.9916 4.95851 19.781 4.58359 19.4061C4.20867 19.0312 3.99805 18.5227 3.99805 17.9925V5.99746Z" stroke="#45556C" stroke-width="2" stroke-linecap="round" stroke-linejoin="round"/>
</svg>
