<svg width="24" height="24" viewBox="0 0 24 24" fill="none" xmlns="http://www.w3.org/2000/svg">
<path d="M14.9973 1.99951H5.99951C5.46921 1.99951 4.96062 2.21017 4.58564 2.58516C4.21066 2.96014 4 3.46872 4 3.99902V19.9951C4 20.5254 4.21066 21.034 4.58564 21.409C4.96062 21.784 5.46921 21.9946 5.99951 21.9946H17.9966C18.5269 21.9946 19.0355 21.784 19.4104 21.409C19.7854 21.034 19.9961 20.5254 19.9961 19.9951V6.99829L14.9973 1.99951Z" stroke="#45556C" stroke-width="1.99951" stroke-linecap="round" stroke-linejoin="round"/>
<path d="M13.9961 1.99951V5.99854C13.9961 6.52884 14.2068 7.03742 14.5817 7.4124C14.9567 7.78738 15.4653 7.99805 15.9956 7.99805H19.9946" stroke="#45556C" stroke-width="1.99951" stroke-linecap="round" stroke-linejoin="round"/>
<path d="M9.99805 8.9978H7.99805" stroke="#45556C" stroke-width="1.99951" stroke-linecap="round" stroke-linejoin="round"/>
<path d="M15.9961 12.9968H7.99805" stroke="#45556C" stroke-width="1.99951" stroke-linecap="round" stroke-linejoin="round"/>
<path d="M15.9961 16.9958H7.99805" stroke="#45556C" stroke-width="1.99951" stroke-linecap="round" stroke-linejoin="round"/>
</svg>
