<svg width="24" height="24" viewBox="0 0 24 24" fill="none" xmlns="http://www.w3.org/2000/svg">
<path d="M9.66871 4.1349C9.72379 3.55538 9.99296 3.01722 10.4236 2.62555C10.8543 2.23388 11.4155 2.01685 11.9976 2.01685C12.5798 2.01685 13.141 2.23388 13.5717 2.62555C14.0023 3.01722 14.2715 3.55538 14.3266 4.1349C14.3597 4.50927 14.4825 4.87014 14.6846 5.18698C14.8867 5.50383 15.1622 5.76731 15.4878 5.95513C15.8133 6.14296 16.1793 6.24959 16.5547 6.266C16.9302 6.28242 17.3041 6.20813 17.6448 6.04943C18.1737 5.80927 18.7732 5.77452 19.3264 5.95194C19.8795 6.12937 20.3469 6.50627 20.6375 7.0093C20.9282 7.51234 21.0212 8.1055 20.8986 8.67336C20.776 9.24122 20.4465 9.74315 19.9742 10.0814C19.6666 10.2972 19.4156 10.5839 19.2423 10.9173C19.069 11.2506 18.9785 11.6208 18.9785 11.9965C18.9785 12.3722 19.069 12.7424 19.2423 13.0757C19.4156 13.409 19.6666 13.6957 19.9742 13.9115C20.4465 14.2498 20.776 14.7517 20.8986 15.3196C21.0212 15.8875 20.9282 16.4806 20.6375 16.9837C20.3469 17.4867 19.8795 17.8636 19.3264 18.041C18.7732 18.2184 18.1737 18.1837 17.6448 17.9435C17.3041 17.7848 16.9302 17.7105 16.5547 17.727C16.1793 17.7434 15.8133 17.85 15.4878 18.0378C15.1622 18.2257 14.8867 18.4891 14.6846 18.806C14.4825 19.1228 14.3597 19.4837 14.3266 19.8581C14.2715 20.4376 14.0023 20.9757 13.5717 21.3674C13.141 21.7591 12.5798 21.9761 11.9976 21.9761C11.4155 21.9761 10.8543 21.7591 10.4236 21.3674C9.99296 20.9757 9.72379 20.4376 9.66871 19.8581C9.63566 19.4836 9.51285 19.1226 9.31066 18.8056C9.10848 18.4886 8.83289 18.2251 8.50723 18.0372C8.18157 17.8494 7.81543 17.7428 7.43983 17.7265C7.06424 17.7102 6.69024 17.7846 6.34952 17.9435C5.82054 18.1837 5.22112 18.2184 4.66793 18.041C4.11474 17.8636 3.64735 17.4867 3.35673 16.9837C3.06612 16.4806 2.97306 15.8875 3.09568 15.3196C3.21829 14.7517 3.54781 14.2498 4.02009 13.9115C4.32763 13.6957 4.57868 13.409 4.752 13.0757C4.92532 12.7424 5.0158 12.3722 5.0158 11.9965C5.0158 11.6208 4.92532 11.2506 4.752 10.9173C4.57868 10.5839 4.32763 10.2972 4.02009 10.0814C3.54847 9.74298 3.21954 9.24125 3.09722 8.67378C2.9749 8.1063 3.06793 7.51362 3.35824 7.01091C3.64854 6.50821 4.11538 6.13139 4.66802 5.9537C5.22066 5.77601 5.81963 5.81013 6.34852 6.04943C6.6892 6.20813 7.06309 6.28242 7.43856 6.266C7.81402 6.24959 8.18001 6.14296 8.50553 5.95513C8.83106 5.76731 9.10654 5.50383 9.30866 5.18698C9.51079 4.87014 9.6336 4.50927 9.66671 4.1349" stroke="#45556C" stroke-width="1.99951" stroke-linecap="round" stroke-linejoin="round"/>
<path d="M11.9973 14.9963C13.6538 14.9963 14.9966 13.6535 14.9966 11.9971C14.9966 10.3406 13.6538 8.9978 11.9973 8.9978C10.3409 8.9978 8.99805 10.3406 8.99805 11.9971C8.99805 13.6535 10.3409 14.9963 11.9973 14.9963Z" stroke="#45556C" stroke-width="1.99951" stroke-linecap="round" stroke-linejoin="round"/>
</svg>
