<svg width="16" height="16" viewBox="0 0 16 16" fill="none" xmlns="http://www.w3.org/2000/svg">
<g clip-path="url(#clip0_1320_684)">
<path d="M13.3266 6.66328C13.3266 9.99065 9.63534 13.456 8.39582 14.5262C8.28035 14.613 8.13979 14.66 7.99531 14.66C7.85084 14.66 7.71027 14.613 7.5948 14.5262C6.35529 13.456 2.66406 9.99065 2.66406 6.66328C2.66406 5.24935 3.22575 3.89332 4.22555 2.89352C5.22535 1.89371 6.58138 1.33203 7.99531 1.33203C9.40925 1.33203 10.7653 1.89371 11.7651 2.89352C12.7649 3.89332 13.3266 5.24935 13.3266 6.66328Z" stroke="black" stroke-width="1.33281" stroke-linecap="round" stroke-linejoin="round"/>
<path d="M7.99922 8.6625C9.10336 8.6625 9.99844 7.76742 9.99844 6.66328C9.99844 5.55914 9.10336 4.66406 7.99922 4.66406C6.89508 4.66406 6 5.55914 6 6.66328C6 7.76742 6.89508 8.6625 7.99922 8.6625Z" stroke="black" stroke-width="1.33281" stroke-linecap="round" stroke-linejoin="round"/>
</g>
<defs>
<clipPath id="clip0_1320_684">
<rect width="15.9937" height="15.9937" fill="white"/>
</clipPath>
</defs>
</svg>
