<svg width="23" height="23" viewBox="0 0 23 23" fill="none" xmlns="http://www.w3.org/2000/svg">
<g clip-path="url(#clip0_7_3712)">
<path d="M9.18848 19.9375C9.35305 20.2225 9.58974 20.4592 9.87477 20.6237C10.1598 20.7883 10.4831 20.8749 10.8122 20.8749C11.1413 20.8749 11.4647 20.7883 11.7497 20.6237C12.0347 20.4592 12.2714 20.2225 12.436 19.9375" stroke="#45556C" stroke-width="1.875" stroke-linecap="round" stroke-linejoin="round"/>
<path d="M2.62092 14.6181C2.49845 14.7524 2.41762 14.9193 2.38828 15.0986C2.35894 15.2779 2.38234 15.4619 2.45564 15.6282C2.52894 15.7945 2.64898 15.9358 2.80116 16.0351C2.95333 16.1344 3.13108 16.1874 3.31279 16.1875H18.3128C18.4945 16.1876 18.6723 16.1348 18.8245 16.0357C18.9768 15.9366 19.097 15.7954 19.1705 15.6292C19.244 15.4631 19.2676 15.2791 19.2385 15.0998C19.2094 14.9205 19.1288 14.7534 19.0065 14.6191C17.7597 13.3337 16.4378 11.9678 16.4378 7.75C16.4378 6.25816 15.8452 4.82742 14.7903 3.77252C13.7354 2.71763 12.3046 2.125 10.8128 2.125C9.32095 2.125 7.89021 2.71763 6.83532 3.77252C5.78042 4.82742 5.18779 6.25816 5.18779 7.75C5.18779 11.9678 3.86498 13.3338 2.62092 14.6181Z" stroke="#45556C" stroke-width="1.875" stroke-linecap="round" stroke-linejoin="round"/>
</g>
<defs>
<clipPath id="clip0_7_3712">
<rect width="22.5" height="22.5" fill="white"/>
</clipPath>
</defs>
</svg>
