<svg width="23" height="23" viewBox="0 0 23 23" fill="none" xmlns="http://www.w3.org/2000/svg">
<path d="M5.625 20.625C5.12772 20.625 4.65081 20.4275 4.29917 20.0758C3.94754 19.7242 3.75 19.2473 3.75 18.75V3.75C3.75 3.25272 3.94754 2.77581 4.29917 2.42418C4.65081 2.07255 5.12772 1.875 5.625 1.875H13.125C13.4218 1.87452 13.7157 1.93276 13.9899 2.04635C14.264 2.15994 14.513 2.32665 14.7225 2.53688L18.0862 5.90063C18.297 6.11017 18.4642 6.35939 18.5781 6.6339C18.6921 6.90842 18.7505 7.20279 18.75 7.5V18.75C18.75 19.2473 18.5525 19.7242 18.2008 20.0758C17.8492 20.4275 17.3723 20.625 16.875 20.625H5.625Z" stroke="white" stroke-width="1.875" stroke-linecap="round" stroke-linejoin="round"/>
<path d="M13.125 1.875V6.5625C13.125 6.81114 13.2238 7.0496 13.3996 7.22541C13.5754 7.40123 13.8139 7.5 14.0625 7.5H18.75" stroke="white" stroke-width="1.875" stroke-linecap="round" stroke-linejoin="round"/>
<path d="M9.375 8.4375H7.5" stroke="white" stroke-width="1.875" stroke-linecap="round" stroke-linejoin="round"/>
<path d="M15 12.1875H7.5" stroke="white" stroke-width="1.875" stroke-linecap="round" stroke-linejoin="round"/>
<path d="M15 15.9375H7.5" stroke="white" stroke-width="1.875" stroke-linecap="round" stroke-linejoin="round"/>
</svg>
