<svg width="29" height="21" viewBox="0 0 29 21" fill="none" xmlns="http://www.w3.org/2000/svg">
<path d="M27.4223 6.72597C27.7477 6.40054 27.7477 5.8729 27.4223 5.54746L22.119 0.244162C21.7935 -0.0812745 21.2659 -0.0812745 20.9405 0.244162C20.615 0.569599 20.615 1.09724 20.9405 1.42267L25.6545 6.13672L20.9405 10.8508C20.615 11.1762 20.615 11.7038 20.9405 12.0293C21.2659 12.3547 21.7935 12.3547 22.119 12.0293L27.4223 6.72597ZM0.833008 5.30339C0.372771 5.30339 -0.000325501 5.67648 -0.000325501 6.13672C-0.000325501 6.59696 0.372771 6.97005 0.833008 6.97005V6.13672V5.30339ZM26.833 6.13672V5.30339H0.833008V6.13672V6.97005H26.833V6.13672Z" fill="white"/>
<path d="M0.240968 13.6753C-0.0829243 14.0022 -0.080426 14.5299 0.246548 14.8538L5.5749 20.1319C5.90187 20.4558 6.42951 20.4533 6.7534 20.1263C7.07729 19.7993 7.07479 19.2717 6.74782 18.9478L2.01151 14.2561L6.70318 9.51983C7.02707 9.19285 7.02457 8.66522 6.6976 8.34133C6.37062 8.01744 5.84299 8.01993 5.5191 8.34691L0.240968 13.6753ZM27.2364 14.97C27.6966 14.9679 28.0679 14.593 28.0657 14.1328C28.0636 13.6725 27.6887 13.3012 27.2285 13.3034L27.2324 14.1367L27.2364 14.97ZM0.833007 14.2617L0.836953 15.095L27.2364 14.97L27.2324 14.1367L27.2285 13.3034L0.829061 13.4284L0.833007 14.2617Z" fill="white"/>
</svg>
