<svg width="17" height="19" viewBox="0 0 17 19" fill="none" xmlns="http://www.w3.org/2000/svg">
<path d="M6.35009 2.59714C6.39596 2.11439 6.62009 1.66609 6.97869 1.33982C7.3373 1.01356 7.80461 0.832764 8.28933 0.832764C8.77406 0.832764 9.24137 1.01356 9.59998 1.33982C9.95858 1.66609 10.1827 2.11439 10.2286 2.59714C10.2561 2.90899 10.3584 3.2096 10.5267 3.47354C10.695 3.73748 10.9244 3.95696 11.1955 4.11342C11.4665 4.26988 11.7713 4.3587 12.0839 4.37238C12.3965 4.38605 12.7079 4.32417 12.9915 4.19197C13.432 3.99191 13.9311 3.96297 14.3918 4.11076C14.8524 4.25856 15.2416 4.57253 15.4836 4.99156C15.7256 5.41059 15.803 5.90471 15.7009 6.37775C15.5988 6.85079 15.3245 7.2689 14.9312 7.55071C14.6751 7.73047 14.4661 7.96928 14.3218 8.24696C14.1774 8.52463 14.1021 8.83299 14.1021 9.14596C14.1021 9.45892 14.1774 9.76728 14.3218 10.045C14.4661 10.3226 14.6751 10.5615 14.9312 10.7412C15.3245 11.023 15.5988 11.4411 15.7009 11.9142C15.803 12.3872 15.7256 12.8813 15.4836 13.3004C15.2416 13.7194 14.8524 14.0334 14.3918 14.1812C13.9311 14.329 13.432 14.3 12.9915 14.0999C12.7079 13.9677 12.3965 13.9059 12.0839 13.9195C11.7713 13.9332 11.4665 14.022 11.1955 14.1785C10.9244 14.335 10.695 14.5544 10.5267 14.8184C10.3584 15.0823 10.2561 15.3829 10.2286 15.6948C10.1827 16.1775 9.95858 16.6258 9.59998 16.9521C9.24137 17.2784 8.77406 17.4592 8.28933 17.4592C7.80461 17.4592 7.3373 17.2784 6.97869 16.9521C6.62009 16.6258 6.39596 16.1775 6.35009 15.6948C6.32257 15.3828 6.22031 15.0821 6.05196 14.8181C5.8836 14.554 5.65412 14.3345 5.38296 14.178C5.11179 14.0215 4.80692 13.9327 4.49416 13.9191C4.18141 13.9056 3.87 13.9676 3.58629 14.0999C3.14582 14.3 2.6467 14.329 2.18607 14.1812C1.72544 14.0334 1.33626 13.7194 1.09427 13.3004C0.852282 12.8813 0.774796 12.3872 0.876895 11.9142C0.978994 11.4411 1.25337 11.023 1.64663 10.7412C1.90272 10.5615 2.11176 10.3226 2.25607 10.045C2.40039 9.76728 2.47573 9.45892 2.47573 9.14596C2.47573 8.83299 2.40039 8.52463 2.25607 8.24696C2.11176 7.96928 1.90272 7.73047 1.64663 7.55071C1.25392 7.26875 0.98003 6.85081 0.878178 6.37809C0.776326 5.90538 0.853793 5.41166 1.09552 4.9929C1.33725 4.57414 1.72598 4.26025 2.18615 4.11222C2.64632 3.9642 3.14507 3.99263 3.58546 4.19197C3.86913 4.32417 4.18046 4.38605 4.4931 4.37238C4.80574 4.3587 5.11049 4.26988 5.38154 4.11342C5.6526 3.95696 5.88199 3.73748 6.05029 3.47354C6.2186 3.2096 6.32086 2.90899 6.34843 2.59714" stroke="#45556C" stroke-width="1.66562" stroke-linecap="round" stroke-linejoin="round"/>
<path d="M8.28941 11.6448C9.66869 11.6448 10.7868 10.5262 10.7868 9.14639C10.7868 7.76654 9.66869 6.64795 8.28941 6.64795C6.91012 6.64795 5.79199 7.76654 5.79199 9.14639C5.79199 10.5262 6.91012 11.6448 8.28941 11.6448Z" stroke="#45556C" stroke-width="1.66562" stroke-linecap="round" stroke-linejoin="round"/>
</svg>
