<svg width="21" height="21" viewBox="0 0 21 21" fill="none" xmlns="http://www.w3.org/2000/svg">
<path d="M8.56396 3.95187C8.60983 3.46913 8.83396 3.02083 9.19256 2.69456C9.55116 2.36829 10.0185 2.1875 10.5032 2.1875C10.9879 2.1875 11.4552 2.36829 11.8138 2.69456C12.1724 3.02083 12.3966 3.46913 12.4424 3.95187C12.47 4.26372 12.5723 4.56434 12.7406 4.82828C12.9089 5.09221 13.1383 5.3117 13.4093 5.46816C13.6804 5.62462 13.9851 5.71344 14.2978 5.72711C14.6104 5.74079 14.9217 5.67891 15.2054 5.54671C15.6459 5.34665 16.145 5.3177 16.6056 5.4655C17.0663 5.6133 17.4554 5.92726 17.6974 6.3463C17.9394 6.76533 18.0169 7.25945 17.9148 7.73249C17.8127 8.20552 17.5383 8.62363 17.1451 8.90544C16.889 9.0852 16.6799 9.32402 16.5356 9.60169C16.3913 9.87937 16.316 10.1877 16.316 10.5007C16.316 10.8137 16.3913 11.122 16.5356 11.3997C16.6799 11.6774 16.889 11.9162 17.1451 12.0959C17.5383 12.3778 17.8127 12.7959 17.9148 13.2689C18.0169 13.7419 17.9394 14.2361 17.6974 14.6551C17.4554 15.0741 17.0663 15.3881 16.6056 15.5359C16.145 15.6837 15.6459 15.6547 15.2054 15.4547C14.9217 15.3225 14.6104 15.2606 14.2978 15.2743C13.9851 15.2879 13.6804 15.3768 13.4093 15.5332C13.1383 15.6897 12.9089 15.9092 12.7406 16.1731C12.5723 16.437 12.47 16.7377 12.4424 17.0495C12.3966 17.5323 12.1724 17.9806 11.8138 18.3068C11.4552 18.6331 10.9879 18.8139 10.5032 18.8139C10.0185 18.8139 9.55116 18.6331 9.19256 18.3068C8.83396 17.9806 8.60983 17.5323 8.56396 17.0495C8.53644 16.7376 8.43418 16.4368 8.26582 16.1728C8.09747 15.9088 7.86799 15.6892 7.59682 15.5327C7.32565 15.3763 7.02078 15.2875 6.70803 15.2739C6.39528 15.2603 6.08386 15.3223 5.80016 15.4547C5.35969 15.6547 4.86057 15.6837 4.39994 15.5359C3.93931 15.3881 3.55013 15.0741 3.30814 14.6551C3.06615 14.2361 2.98866 13.7419 3.09076 13.2689C3.19286 12.7959 3.46724 12.3778 3.8605 12.0959C4.11658 11.9162 4.32562 11.6774 4.46994 11.3997C4.61426 11.122 4.6896 10.8137 4.6896 10.5007C4.6896 10.1877 4.61426 9.87937 4.46994 9.60169C4.32562 9.32402 4.11658 9.0852 3.8605 8.90544C3.46779 8.62349 3.1939 8.20554 3.09205 7.73283C2.99019 7.26011 3.06766 6.7664 3.30939 6.34764C3.55112 5.92888 3.93984 5.61498 4.40001 5.46696C4.86019 5.31894 5.35893 5.34736 5.79932 5.54671C6.08299 5.67891 6.39433 5.74079 6.70697 5.72711C7.01961 5.71344 7.32435 5.62462 7.59541 5.46816C7.86647 5.3117 8.09586 5.09221 8.26416 4.82828C8.43246 4.56434 8.53473 4.26372 8.5623 3.95187" stroke="white" stroke-width="1.66562" stroke-linecap="round" stroke-linejoin="round"/>
<path d="M10.5052 12.9988C11.8845 12.9988 13.0026 11.8802 13.0026 10.5004C13.0026 9.12054 11.8845 8.00195 10.5052 8.00195C9.12594 8.00195 8.00781 9.12054 8.00781 10.5004C8.00781 11.8802 9.12594 12.9988 10.5052 12.9988Z" stroke="white" stroke-width="1.66562" stroke-linecap="round" stroke-linejoin="round"/>
</svg>
