<svg width="23" height="23" viewBox="0 0 23 23" fill="none" xmlns="http://www.w3.org/2000/svg">
<path d="M8.4375 2.8125H3.75C3.23223 2.8125 2.8125 3.23223 2.8125 3.75V10.3125C2.8125 10.8303 3.23223 11.25 3.75 11.25H8.4375C8.95527 11.25 9.375 10.8303 9.375 10.3125V3.75C9.375 3.23223 8.95527 2.8125 8.4375 2.8125Z" stroke="#45556C" stroke-width="1.875" stroke-linecap="round" stroke-linejoin="round"/>
<path d="M18.75 2.8125H14.0625C13.5447 2.8125 13.125 3.23223 13.125 3.75V6.5625C13.125 7.08027 13.5447 7.5 14.0625 7.5H18.75C19.2678 7.5 19.6875 7.08027 19.6875 6.5625V3.75C19.6875 3.23223 19.2678 2.8125 18.75 2.8125Z" stroke="#45556C" stroke-width="1.875" stroke-linecap="round" stroke-linejoin="round"/>
<path d="M18.75 11.25H14.0625C13.5447 11.25 13.125 11.6697 13.125 12.1875V18.75C13.125 19.2678 13.5447 19.6875 14.0625 19.6875H18.75C19.2678 19.6875 19.6875 19.2678 19.6875 18.75V12.1875C19.6875 11.6697 19.2678 11.25 18.75 11.25Z" stroke="#45556C" stroke-width="1.875" stroke-linecap="round" stroke-linejoin="round"/>
<path d="M8.4375 15H3.75C3.23223 15 2.8125 15.4197 2.8125 15.9375V18.75C2.8125 19.2678 3.23223 19.6875 3.75 19.6875H8.4375C8.95527 19.6875 9.375 19.2678 9.375 18.75V15.9375C9.375 15.4197 8.95527 15 8.4375 15Z" stroke="#45556C" stroke-width="1.875" stroke-linecap="round" stroke-linejoin="round"/>
</svg>
