<svg width="14" height="14" viewBox="0 0 14 14" fill="none" xmlns="http://www.w3.org/2000/svg">
<path d="M8.74229 1.16553H5.24541C4.92353 1.16553 4.6626 1.42646 4.6626 1.74834V2.91396C4.6626 3.23584 4.92353 3.49678 5.24541 3.49678H8.74229C9.06416 3.49678 9.3251 3.23584 9.3251 2.91396V1.74834C9.3251 1.42646 9.06416 1.16553 8.74229 1.16553Z" stroke="white" stroke-width="1.16562" stroke-linecap="round" stroke-linejoin="round"/>
<path d="M9.32505 2.33105H10.4907C10.7998 2.33105 11.0963 2.45386 11.3149 2.67246C11.5335 2.89106 11.6563 3.18754 11.6563 3.49668V11.6561C11.6563 11.9652 11.5335 12.2617 11.3149 12.4803C11.0963 12.6989 10.7998 12.8217 10.4907 12.8217H3.49692C3.18778 12.8217 2.8913 12.6989 2.6727 12.4803C2.45411 12.2617 2.3313 11.9652 2.3313 11.6561V3.49668C2.3313 3.18754 2.45411 2.89106 2.6727 2.67246C2.8913 2.45386 3.18778 2.33105 3.49692 2.33105H4.66255" stroke="white" stroke-width="1.16562" stroke-linecap="round" stroke-linejoin="round"/>
<path d="M6.99365 6.41113H9.3249" stroke="white" stroke-width="1.16562" stroke-linecap="round" stroke-linejoin="round"/>
<path d="M6.99365 9.3252H9.3249" stroke="white" stroke-width="1.16562" stroke-linecap="round" stroke-linejoin="round"/>
<path d="M4.6626 6.41113H4.66843" stroke="white" stroke-width="1.16562" stroke-linecap="round" stroke-linejoin="round"/>
<path d="M4.6626 9.3252H4.66843" stroke="white" stroke-width="1.16562" stroke-linecap="round" stroke-linejoin="round"/>
</svg>
