<svg width="32" height="32" viewBox="0 0 32 32" fill="none" xmlns="http://www.w3.org/2000/svg">
<path d="M8.29688 16.0105C8.23437 15.8422 8.23437 15.6569 8.29688 15.4885C8.90565 14.0124 9.93902 12.7503 11.266 11.8622C12.5929 10.9741 14.1537 10.5 15.7504 10.5C17.3471 10.5 18.9079 10.9741 20.2348 11.8622C21.5617 12.7503 22.5951 14.0124 23.2039 15.4885C23.2664 15.6569 23.2664 15.8422 23.2039 16.0105C22.5951 17.4866 21.5617 18.7488 20.2348 19.6369C18.9079 20.525 17.3471 20.9991 15.7504 20.9991C14.1537 20.9991 12.5929 20.525 11.266 19.6369C9.93902 18.7488 8.90565 17.4866 8.29688 16.0105Z" stroke="#90A1B9" stroke-width="1.5" stroke-linecap="round" stroke-linejoin="round"/>
<path d="M15.75 18C16.9926 18 18 16.9926 18 15.75C18 14.5074 16.9926 13.5 15.75 13.5C14.5074 13.5 13.5 14.5074 13.5 15.75C13.5 16.9926 14.5074 18 15.75 18Z" stroke="#90A1B9" stroke-width="1.5" stroke-linecap="round" stroke-linejoin="round"/>
</svg>
