<svg width="20" height="20" viewBox="0 0 20 20" fill="none" xmlns="http://www.w3.org/2000/svg">
<path d="M2.5 9.99531C2.5 11.4777 2.93959 12.9269 3.76319 14.1595C4.58678 15.3921 5.75739 16.3528 7.12698 16.9201C8.49657 17.4874 10.0036 17.6358 11.4576 17.3466C12.9115 17.0574 14.2471 16.3435 15.2953 15.2953C16.3435 14.2471 17.0574 12.9115 17.3466 11.4576C17.6358 10.0036 17.4874 8.49657 16.9201 7.12698C16.3528 5.75739 15.3921 4.58678 14.1595 3.76319C12.9269 2.93959 11.4777 2.5 9.99531 2.5C7.89992 2.50788 5.88869 3.3255 4.38216 4.78191L2.5 6.66406" stroke="white" stroke-width="1.66562" stroke-linecap="round" stroke-linejoin="round"/>
<path d="M2.5 2.5V6.66406H6.66406" stroke="white" stroke-width="1.66562" stroke-linecap="round" stroke-linejoin="round"/>
<path d="M9.99219 5.82812V9.99219L13.3234 11.6578" stroke="white" stroke-width="1.66562" stroke-linecap="round" stroke-linejoin="round"/>
</svg>
