<svg width="20" height="20" viewBox="0 0 20 20" fill="none" xmlns="http://www.w3.org/2000/svg">
<mask id="mask0_7_588" style="mask-type:luminance" maskUnits="userSpaceOnUse" x="0" y="0" width="20" height="20">
<path d="M19.9563 0H0V19.9563H19.9563V0Z" fill="white"/>
</mask>
<g mask="url(#mask0_7_588)">
<path d="M8.31543 9.97815H11.6415" stroke="#45556C" stroke-width="1.66302" stroke-linecap="round" stroke-linejoin="round"/>
<path d="M8.31543 6.6521H11.6415" stroke="#45556C" stroke-width="1.66302" stroke-linecap="round" stroke-linejoin="round"/>
<path d="M11.6415 17.4618V14.9672C11.6415 14.5262 11.4663 14.1032 11.1544 13.7913C10.8426 13.4794 10.4195 13.3042 9.97846 13.3042C9.5374 13.3042 9.1144 13.4794 8.80252 13.7913C8.49065 14.1032 8.31543 14.5262 8.31543 14.9672V17.4618" stroke="#45556C" stroke-width="1.66302" stroke-linecap="round" stroke-linejoin="round"/>
<path d="M4.98914 8.31509H3.32612C2.88506 8.31509 2.46206 8.49031 2.15017 8.80218C1.8383 9.11406 1.66309 9.53706 1.66309 9.97812V15.7987C1.66309 16.2398 1.8383 16.6627 2.15017 16.9746C2.46206 17.2866 2.88506 17.4618 3.32612 17.4618H16.6303C17.0714 17.4618 17.4944 17.2866 17.8062 16.9746C18.1182 16.6627 18.2934 16.2398 18.2934 15.7987V7.48358C18.2934 7.04252 18.1182 6.61952 17.8062 6.30765C17.4944 5.99576 17.0714 5.82056 16.6303 5.82056H14.9673" stroke="#45556C" stroke-width="1.66302" stroke-linecap="round" stroke-linejoin="round"/>
<path d="M4.98926 17.4618V4.15753C4.98926 3.71647 5.16447 3.29347 5.47635 2.9816C5.78823 2.66971 6.21123 2.49451 6.65229 2.49451H13.3044C13.7454 2.49451 14.1684 2.66971 14.4804 2.9816C14.7922 3.29347 14.9674 3.71647 14.9674 4.15753V17.4618" stroke="#45556C" stroke-width="1.66302" stroke-linecap="round" stroke-linejoin="round"/>
</g>
</svg>
