<svg width="20" height="20" viewBox="0 0 20 20" fill="none" xmlns="http://www.w3.org/2000/svg">
<g clip-path="url(#clip0_23_694)">
<mask id="mask0_23_694" style="mask-type:luminance" maskUnits="userSpaceOnUse" x="0" y="0" width="20" height="20">
<path d="M19.9563 0H0V19.9563H19.9563V0Z" fill="white"/>
</mask>
<g mask="url(#mask0_23_694)">
<path d="M8.31543 9.97821H11.6415" stroke="white" stroke-width="1.66302" stroke-linecap="round" stroke-linejoin="round"/>
<path d="M8.31543 6.65216H11.6415" stroke="white" stroke-width="1.66302" stroke-linecap="round" stroke-linejoin="round"/>
<path d="M11.6415 17.4619V14.9673C11.6415 14.5263 11.4663 14.1032 11.1544 13.7914C10.8426 13.4795 10.4195 13.3043 9.97846 13.3043C9.5374 13.3043 9.1144 13.4795 8.80252 13.7914C8.49065 14.1032 8.31543 14.5263 8.31543 14.9673V17.4619" stroke="white" stroke-width="1.66302" stroke-linecap="round" stroke-linejoin="round"/>
<path d="M4.98914 8.31515H3.32612C2.88506 8.31515 2.46206 8.49037 2.15017 8.80224C1.8383 9.11412 1.66309 9.53712 1.66309 9.97818V15.7987C1.66309 16.2398 1.8383 16.6628 2.15017 16.9747C2.46206 17.2866 2.88506 17.4618 3.32612 17.4618H16.6303C17.0714 17.4618 17.4944 17.2866 17.8062 16.9747C18.1182 16.6628 18.2934 16.2398 18.2934 15.7987V7.48364C18.2934 7.04258 18.1182 6.61958 17.8062 6.30771C17.4944 5.99582 17.0714 5.82062 16.6303 5.82062H14.9673" stroke="white" stroke-width="1.66302" stroke-linecap="round" stroke-linejoin="round"/>
<path d="M4.98926 17.4618V4.15759C4.98926 3.71653 5.16447 3.29353 5.47635 2.98166C5.78823 2.66977 6.21123 2.49457 6.65229 2.49457H13.3044C13.7454 2.49457 14.1684 2.66977 14.4804 2.98166C14.7922 3.29353 14.9674 3.71653 14.9674 4.15759V17.4618" stroke="white" stroke-width="1.66302" stroke-linecap="round" stroke-linejoin="round"/>
</g>
</g>
<defs>
<clipPath id="clip0_23_694">
<rect width="19.9688" height="19.9688" fill="white"/>
</clipPath>
</defs>
</svg>
