<svg width="16" height="16" viewBox="0 0 16 16" fill="none" xmlns="http://www.w3.org/2000/svg">
<g clip-path="url(#clip0_1320_659)">
<path d="M12.6625 7.33203H3.33281C2.59672 7.33203 2 7.92875 2 8.66484V13.3297C2 14.0658 2.59672 14.6625 3.33281 14.6625H12.6625C13.3986 14.6625 13.9953 14.0658 13.9953 13.3297V8.66484C13.9953 7.92875 13.3986 7.33203 12.6625 7.33203Z" stroke="black" stroke-width="1.33281" stroke-linecap="round" stroke-linejoin="round"/>
<path d="M4.66406 7.32969V4.66406C4.66406 3.78035 5.01511 2.93284 5.63999 2.30796C6.26487 1.68308 7.11238 1.33203 7.99609 1.33203C8.8798 1.33203 9.72732 1.68308 10.3522 2.30796C10.9771 2.93284 11.3281 3.78035 11.3281 4.66406V7.32969" stroke="black" stroke-width="1.33281" stroke-linecap="round" stroke-linejoin="round"/>
</g>
<defs>
<clipPath id="clip0_1320_659">
<rect width="15.9937" height="15.9937" fill="white"/>
</clipPath>
</defs>
</svg>
