<svg width="21" height="20" viewBox="0 0 21 20" fill="none" xmlns="http://www.w3.org/2000/svg">
<g clip-path="url(#clip0_1036_659)">
<path d="M17.8178 20.2082C17.7568 19.6465 17.6568 19.247 17.0771 18.8447C16.5074 18.4494 16.2105 17.6974 15.9023 17.0188C16.731 16.9634 17.5208 16.5209 18.0042 17.4503C18.0944 17.6237 18.6639 17.6721 18.9711 17.6057C19.1712 17.5624 19.4349 17.1983 19.4205 16.9939C19.4029 16.7439 19.1798 16.4239 18.9467 16.2881C18.4566 16.0027 17.8859 15.8465 17.3768 15.5865C15.5657 14.6613 15.4764 12.5968 17.1448 11.4404C17.4878 11.2026 17.6732 10.7586 18.0478 10.252C18.307 10.252 18.8381 10.252 19.0968 10.252C19.8308 11.1596 20.4496 11.9248 21.1446 12.699C21.2207 12.9304 21.2207 13.1526 21.1248 13.4581C20.4991 13.4483 19.9581 13.392 19.4431 13.2501C19.0386 13.1386 18.6772 12.8426 18.2739 12.7917C18.1249 12.7729 17.7034 13.3312 17.7644 13.4344C17.971 13.7841 18.2829 14.1718 18.6539 14.3212C19.709 14.7461 20.7058 15.1925 21.2207 16.2498C21.2207 16.607 21.2207 16.9642 21.1618 17.4544C20.8042 18.0028 20.5973 18.5631 20.1853 18.7996C19.5562 19.1607 19.3868 19.59 19.4707 20.2082C18.9521 20.2082 18.4336 20.2082 17.8178 20.2082Z" fill="#45556C"/>
<path d="M21.2201 16.1532C20.7052 15.1923 19.7084 14.7459 18.6533 14.321C18.2823 14.1716 17.9704 13.7839 17.7638 13.4342C17.7028 13.331 18.1243 12.7727 18.2733 12.7915C18.6766 12.8424 19.038 13.1384 19.4425 13.2499C19.9575 13.3919 20.4985 13.4481 21.1242 13.5413C21.2201 14.3798 21.2201 15.2182 21.2201 16.1532Z" fill="#F6F6F6"/>
<path d="M19.5787 20.2084C19.3866 19.5903 19.556 19.1609 20.1851 18.7998C20.5971 18.5634 20.8041 18.003 21.1617 17.5439C21.2205 18.3813 21.2205 19.2626 21.2205 20.2084C20.7111 20.2084 20.199 20.2084 19.5787 20.2084Z" fill="#F7F7F7"/>
<path d="M7.01405 1.87264C9.92786 1.87272 12.7345 1.86794 15.5411 1.87479C17.0942 1.87858 17.7133 2.47393 17.721 3.95992C17.7287 5.44701 17.7227 6.93416 17.7227 8.49157C17.1312 8.52556 16.6046 8.55583 16.3159 8.57242C15.9433 9.38532 15.6991 10.1036 15.3015 10.7341C14.896 11.377 14.5573 12.2381 13.396 11.8708C13.396 12.4355 13.396 12.9114 13.396 13.4394C14.6135 13.456 14.1719 14.4636 14.5676 15.1877C12.9448 15.1877 11.4455 15.1877 9.89858 15.1877C9.89858 15.778 9.89858 16.2523 9.89858 16.8292C11.2835 16.8292 12.6876 16.8292 14.1271 16.8292C14.2576 17.4133 14.3682 17.9081 14.5105 18.5447C12.8265 18.5447 11.207 18.5448 9.58754 18.5447C8.38471 18.5447 7.18187 18.5484 5.97906 18.5436C4.29493 18.5369 3.71806 17.9735 3.7169 16.327C3.71404 12.2655 3.71436 8.20402 3.71665 4.14253C3.71763 2.39334 4.27316 1.87682 6.1414 1.8728C6.39655 1.87225 6.65169 1.87267 7.01405 1.87264ZM13.4498 8.56447C13.4288 8.62625 13.4079 8.68804 13.3538 8.92642C13.3647 9.28438 13.3756 9.64235 13.3671 10.1088C13.4323 10.1288 13.4974 10.1488 13.7481 10.2001C14.1239 10.1894 14.4997 10.1786 14.9887 10.1859C15.0096 10.1242 15.0304 10.0626 15.0848 9.82437C15.074 9.46638 15.0631 9.10839 15.0715 8.64198C15.0064 8.62196 14.9412 8.60194 14.6906 8.55063C14.3148 8.56125 13.939 8.57187 13.4498 8.56447ZM6.4497 15.231C6.42878 15.2929 6.40786 15.3547 6.3538 15.5931C6.3647 15.9511 6.37561 16.309 6.36716 16.7754C6.4323 16.7954 6.49744 16.8154 6.74808 16.8666C7.1239 16.8559 7.49973 16.8451 7.98864 16.8524C8.00947 16.7908 8.0303 16.7292 8.08465 16.491C8.07384 16.133 8.06303 15.7751 8.07151 15.3087C8.00638 15.2886 7.94124 15.2686 7.69062 15.2173C7.3148 15.2279 6.93897 15.2385 6.4497 15.231ZM7.69062 8.55075C7.3148 8.56133 6.93897 8.57191 6.44975 8.56445C6.42884 8.62625 6.40792 8.68805 6.35385 8.92643C6.36472 9.28439 6.37558 9.64235 6.36709 10.1088C6.43225 10.1288 6.49742 10.1488 6.74808 10.2001C7.12391 10.1893 7.49973 10.1785 7.98869 10.1859C8.00952 10.1242 8.03036 10.0625 8.08471 9.82435C8.07386 9.46638 8.06301 9.1084 8.07144 8.64204C8.00633 8.62203 7.94122 8.60202 7.69062 8.55075ZM8.07151 11.9753C8.00638 11.9553 7.94124 11.9353 7.69062 11.884C7.3148 11.8946 6.93897 11.9051 6.4497 11.8977C6.42878 11.9595 6.40786 12.0214 6.3538 12.2598C6.36468 12.6177 6.37556 12.9757 6.36709 13.4421C6.43225 13.4621 6.49742 13.4821 6.74808 13.5334C7.12391 13.5226 7.49973 13.5119 7.98869 13.5192C8.00952 13.4575 8.03036 13.3959 8.08471 13.1577C8.07388 12.7997 8.06305 12.4417 8.07151 11.9753ZM11.5715 11.9753C11.5064 11.9553 11.4412 11.9353 11.1906 11.884C10.8148 11.8946 10.439 11.9051 9.9497 11.8977C9.92878 11.9595 9.90786 12.0213 9.8538 12.2598C9.86468 12.6177 9.87556 12.9757 9.86709 13.4421C9.93225 13.4621 9.99742 13.4821 10.2481 13.5334C10.6239 13.5226 10.9997 13.5118 11.4886 13.5191C11.5095 13.4575 11.5303 13.3958 11.5847 13.1577C11.5738 12.7997 11.563 12.4417 11.5715 11.9753ZM9.85385 8.92643C9.86472 9.28439 9.87558 9.64235 9.86709 10.1088C9.93225 10.1288 9.99741 10.1488 10.2481 10.2001C10.6239 10.1893 10.9997 10.1785 11.4887 10.1859C11.5095 10.1242 11.5304 10.0625 11.5847 9.82435C11.5739 9.46638 11.563 9.1084 11.5714 8.64204C11.5063 8.62203 11.4412 8.60202 11.1906 8.55075C10.8148 8.56133 10.439 8.5719 9.94975 8.56445C9.92884 8.62625 9.90792 8.68805 9.85385 8.92643ZM9.29776 3.54436C8.03866 3.54436 6.77955 3.54436 5.55787 3.54436C5.55787 4.74168 5.55787 5.79507 5.55787 6.82004C9.05406 6.82004 12.4644 6.82004 15.9001 6.82004C15.9001 5.71399 15.9001 4.66197 15.9001 3.54436C13.7283 3.54436 11.6224 3.54436 9.29776 3.54436Z" fill="#45556C"/>
<path d="M9.40779 3.54395C11.6231 3.54395 13.7291 3.54395 15.9008 3.54395C15.9008 4.66156 15.9008 5.71357 15.9008 6.81963C12.4651 6.81963 9.05479 6.81963 5.55859 6.81963C5.55859 5.79466 5.55859 4.74126 5.55859 3.54395C6.78028 3.54395 8.03938 3.54395 9.40779 3.54395Z" fill="#FDFDFD"/>
<path d="M10.0614 8.5818C10.4372 8.57121 10.813 8.56064 11.301 8.60222C11.4484 8.69989 11.4941 8.73168 11.5504 8.74973C11.5612 9.10771 11.5721 9.46569 11.5279 9.93023C11.4253 10.0702 11.3923 10.1136 11.3738 10.1671C10.998 10.1778 10.6221 10.1886 10.1341 10.1472C9.98673 10.0494 9.94097 10.0177 9.88467 9.99961C9.8738 9.64166 9.86294 9.2837 9.90693 8.81903C10.0095 8.67884 10.0427 8.63533 10.0614 8.5818Z" fill="white"/>
<path d="M10.0614 11.9158C10.4372 11.9052 10.813 11.8946 11.301 11.9362C11.4484 12.0339 11.4942 12.0657 11.5505 12.0838C11.5613 12.4418 11.5721 12.7998 11.5279 13.2643C11.4253 13.4042 11.3923 13.4476 11.3738 13.5011C10.998 13.5119 10.6222 13.5227 10.1342 13.4813C9.98675 13.3835 9.94099 13.3517 9.88469 13.3337C9.87381 12.9757 9.86293 12.6178 9.90692 12.1531C10.0095 12.0129 10.0427 11.9693 10.0614 11.9158Z" fill="white"/>
<path d="M6.56139 11.9158C6.93722 11.9052 7.31304 11.8946 7.80105 11.9362C7.94844 12.0339 7.99419 12.0657 8.05047 12.0838C8.0613 12.4418 8.07213 12.7998 8.02797 13.2643C7.92535 13.4042 7.89229 13.4477 7.87381 13.5012C7.49798 13.5119 7.12215 13.5227 6.63415 13.4813C6.48675 13.3835 6.44099 13.3517 6.38469 13.3337C6.37381 12.9757 6.36293 12.6178 6.40692 12.1531C6.5095 12.0129 6.5427 11.9693 6.56139 11.9158Z" fill="white"/>
<path d="M6.56137 8.58179C6.9372 8.57122 7.31302 8.56064 7.80102 8.60222C7.9484 8.69989 7.99413 8.73167 8.05038 8.74973C8.06123 9.10771 8.07209 9.46569 8.02794 9.93023C7.92532 10.0702 7.89227 10.1136 7.87379 10.1671C7.49796 10.1778 7.12213 10.1886 6.63413 10.1472C6.48673 10.0494 6.44097 10.0177 6.38467 9.99961C6.37381 9.64166 6.36294 9.2837 6.40693 8.81903C6.50948 8.67884 6.54267 8.63533 6.56137 8.58179Z" fill="white"/>
<path d="M6.38472 16.6667C6.37382 16.3087 6.36291 15.9508 6.40688 15.4861C6.50946 15.3459 6.54266 15.3024 6.56136 15.2488C6.93718 15.2382 7.31301 15.2276 7.80101 15.2692C7.9484 15.3669 7.99415 15.3987 8.05043 15.4168C8.06124 15.7748 8.07205 16.1328 8.02789 16.5973C7.9253 16.7372 7.89225 16.7806 7.87377 16.8341C7.49794 16.8448 7.12211 16.8556 6.63411 16.8142C6.48673 16.7165 6.44099 16.6847 6.38472 16.6667Z" fill="white"/>
<path d="M15.0505 8.74976C15.0613 9.10775 15.0722 9.46574 15.028 9.93031C14.9254 10.0703 14.8923 10.1137 14.8738 10.1672C14.498 10.178 14.1221 10.1887 13.6341 10.1473C13.4867 10.0495 13.441 10.0177 13.3847 9.99968C13.3738 9.64171 13.3629 9.28374 13.4069 8.81906C13.5095 8.67887 13.5427 8.63537 13.5614 8.58185C13.9372 8.57123 14.313 8.56061 14.801 8.60218C14.9485 8.6999 14.9942 8.7317 15.0505 8.74976Z" fill="white"/>
<path d="M6.375 16.7207C6.44126 16.6849 6.48721 16.7164 6.5421 16.7976C6.49617 16.814 6.43073 16.7942 6.375 16.7207Z" fill="#EFEFEF"/>
<path d="M8.06165 15.3616C7.99541 15.3974 7.94945 15.3659 7.89453 15.2847C7.94045 15.2683 8.0059 15.2881 8.06165 15.3616Z" fill="#EFEFEF"/>
<path d="M6.50487 15.2393C6.5429 15.3018 6.5097 15.3454 6.42368 15.3973C6.4063 15.3539 6.42723 15.2921 6.50487 15.2393Z" fill="#EFEFEF"/>
<path d="M11.4297 13.5101C11.3917 13.4476 11.4247 13.4042 11.5105 13.3525C11.5279 13.3959 11.5071 13.4575 11.4297 13.5101Z" fill="#EFEFEF"/>
<path d="M9.875 13.3877C9.94129 13.3519 9.98727 13.3833 10.0422 13.4646C9.99622 13.481 9.93075 13.4612 9.875 13.3877Z" fill="#EFEFEF"/>
<path d="M7.92972 13.5102C7.89164 13.4476 7.9247 13.4042 8.01056 13.3525C8.02796 13.3959 8.00712 13.4576 7.92972 13.5102Z" fill="#EFEFEF"/>
<path d="M6.375 13.3877C6.44129 13.3519 6.48727 13.3834 6.54218 13.4646C6.49622 13.481 6.43075 13.4612 6.375 13.3877Z" fill="#EFEFEF"/>
<path d="M7.92971 16.8431C7.89165 16.7806 7.9247 16.7372 8.01052 16.6855C8.02791 16.7289 8.00708 16.7905 7.92971 16.8431Z" fill="#EFEFEF"/>
<path d="M10.0048 8.57324C10.0428 8.6358 10.0096 8.6793 9.92368 8.7312C9.90631 8.68782 9.92723 8.62602 10.0048 8.57324Z" fill="#EFEFEF"/>
<path d="M11.5617 12.0286C11.4954 12.0644 11.4494 12.0329 11.3945 11.9517C11.4405 11.9353 11.5059 11.9551 11.5617 12.0286Z" fill="#EFEFEF"/>
<path d="M6.50484 8.57324C6.54284 8.6358 6.50965 8.6793 6.42368 8.7312C6.40631 8.68782 6.42723 8.62602 6.50484 8.57324Z" fill="#EFEFEF"/>
<path d="M10.0049 11.9062C10.0429 11.9688 10.0097 12.0124 9.92368 12.0643C9.90631 12.0209 9.92723 11.9591 10.0049 11.9062Z" fill="#EFEFEF"/>
<path d="M8.06165 12.0286C7.99541 12.0644 7.94944 12.0329 7.89453 11.9517C7.94045 11.9353 8.0059 11.9551 8.06165 12.0286Z" fill="#EFEFEF"/>
<path d="M6.50487 11.9062C6.5429 11.9688 6.50969 12.0124 6.42368 12.0643C6.40631 12.0209 6.42723 11.9591 6.50487 11.9062Z" fill="#EFEFEF"/>
<path d="M8.06158 8.69458C7.99538 8.73035 7.94943 8.69889 7.89453 8.61766C7.94043 8.60131 8.00585 8.62112 8.06158 8.69458Z" fill="#EFEFEF"/>
<path d="M14.9297 10.1762C14.8916 10.1137 14.9247 10.0702 15.0106 10.0186C15.028 10.0619 15.0071 10.1236 14.9297 10.1762Z" fill="#EFEFEF"/>
<path d="M13.375 10.0537C13.4413 10.0179 13.4872 10.0494 13.5422 10.1306C13.4962 10.147 13.4307 10.1272 13.375 10.0537Z" fill="#EFEFEF"/>
<path d="M11.4297 10.1762C11.3916 10.1137 11.4247 10.0702 11.5106 10.0186C11.528 10.0619 11.5071 10.1236 11.4297 10.1762Z" fill="#EFEFEF"/>
<path d="M9.875 10.0537C9.94129 10.0179 9.98727 10.0494 10.0422 10.1307C9.99622 10.147 9.93075 10.1272 9.875 10.0537Z" fill="#EFEFEF"/>
<path d="M7.92972 10.1762C7.89164 10.1137 7.9247 10.0702 8.01056 10.0186C8.02796 10.0619 8.00712 10.1236 7.92972 10.1762Z" fill="#EFEFEF"/>
<path d="M6.375 10.0537C6.44129 10.0179 6.48727 10.0494 6.54218 10.1307C6.49622 10.147 6.43075 10.1272 6.375 10.0537Z" fill="#EFEFEF"/>
<path d="M15.0616 8.69462C14.9954 8.7304 14.9495 8.69892 14.8945 8.61766C14.9404 8.60131 15.0059 8.62113 15.0616 8.69462Z" fill="#EFEFEF"/>
<path d="M13.5048 8.57324C13.5428 8.63578 13.5096 8.67928 13.4237 8.73117C13.4063 8.68781 13.4272 8.62602 13.5048 8.57324Z" fill="#EFEFEF"/>
<path d="M11.5616 8.69458C11.4954 8.73035 11.4494 8.69889 11.3945 8.61766C11.4404 8.60131 11.5058 8.62112 11.5616 8.69458Z" fill="#EFEFEF"/>
</g>
<defs>
<clipPath id="clip0_1036_659">
<rect width="21" height="20" fill="white"/>
</clipPath>
</defs>
</svg>
