<svg width="28" height="28" viewBox="0 0 28 28" fill="none" xmlns="http://www.w3.org/2000/svg">
<path d="M18.6624 24.4945V22.1617C18.6624 20.9243 18.1709 19.7376 17.2959 18.8626C16.4209 17.9877 15.2342 17.4961 13.9968 17.4961H6.99839C5.76099 17.4961 4.57427 17.9877 3.69929 18.8626C2.82432 19.7376 2.33276 20.9243 2.33276 22.1617V24.4945" stroke="white" stroke-width="2.33281" stroke-linecap="round" stroke-linejoin="round"/>
<path d="M18.6626 3.64844C19.6631 3.90781 20.5491 4.49206 21.1817 5.30947C21.8142 6.12689 22.1574 7.1312 22.1574 8.16476C22.1574 9.19833 21.8142 10.2026 21.1817 11.0201C20.5491 11.8375 19.6631 12.4217 18.6626 12.6811" stroke="white" stroke-width="2.33281" stroke-linecap="round" stroke-linejoin="round"/>
<path d="M25.6608 24.4943V22.1615C25.6601 21.1277 25.316 20.1235 24.6827 19.3065C24.0493 18.4894 23.1625 17.9059 22.1616 17.6475" stroke="white" stroke-width="2.33281" stroke-linecap="round" stroke-linejoin="round"/>
<path d="M10.4977 12.8303C13.0744 12.8303 15.1633 10.7414 15.1633 8.16465C15.1633 5.58789 13.0744 3.49902 10.4977 3.49902C7.9209 3.49902 5.83203 5.58789 5.83203 8.16465C5.83203 10.7414 7.9209 12.8303 10.4977 12.8303Z" stroke="white" stroke-width="2.33281" stroke-linecap="round" stroke-linejoin="round"/>
</svg>
