<svg width="16" height="16" viewBox="0 0 16 16" fill="none" xmlns="http://www.w3.org/2000/svg">
<g clip-path="url(#clip0_1320_682)">
<path d="M9.22086 11.0402C9.35849 11.1034 9.51354 11.1179 9.66048 11.0812C9.80741 11.0445 9.93747 10.9588 10.0292 10.8383L10.2658 10.5284C10.3899 10.3629 10.5509 10.2286 10.736 10.136C10.921 10.0435 11.1251 9.99531 11.332 9.99531H13.3312C13.6847 9.99531 14.0237 10.1357 14.2737 10.3857C14.5236 10.6356 14.6641 10.9746 14.6641 11.3281V13.3273C14.6641 13.6808 14.5236 14.0198 14.2737 14.2698C14.0237 14.5197 13.6847 14.6602 13.3312 14.6602C10.1499 14.6602 7.09884 13.3964 4.84928 11.1468C2.59973 8.89725 1.33594 5.8462 1.33594 2.66484C1.33594 2.31136 1.47636 1.97235 1.72631 1.7224C1.97626 1.47245 2.31527 1.33203 2.66875 1.33203H4.66797C5.02145 1.33203 5.36046 1.47245 5.61041 1.7224C5.86036 1.97235 6.00078 2.31136 6.00078 2.66484V4.66406C6.00078 4.87097 5.95261 5.07505 5.86007 5.26011C5.76754 5.44518 5.63319 5.60616 5.46766 5.73031L5.15578 5.96422C5.03344 6.05764 4.94721 6.19052 4.91173 6.34031C4.87626 6.49009 4.89374 6.64754 4.96119 6.7859C5.87195 8.63575 7.36986 10.1318 9.22086 11.0402Z" stroke="black" stroke-width="1.33281" stroke-linecap="round" stroke-linejoin="round"/>
</g>
<defs>
<clipPath id="clip0_1320_682">
<rect width="15.9937" height="15.9937" fill="white"/>
</clipPath>
</defs>
</svg>
