<svg width="16" height="16" viewBox="0 0 16 16" fill="none" xmlns="http://www.w3.org/2000/svg">
<path d="M1.3737 8.23029C1.31814 8.08061 1.31814 7.91596 1.3737 7.76629C1.91483 6.45419 2.83338 5.33231 4.01288 4.54289C5.19239 3.75346 6.57973 3.33203 7.99904 3.33203C9.41834 3.33203 10.8057 3.75346 11.9852 4.54289C13.1647 5.33231 14.0832 6.45419 14.6244 7.76629C14.6799 7.91596 14.6799 8.08061 14.6244 8.23029C14.0832 9.54238 13.1647 10.6643 11.9852 11.4537C10.8057 12.2431 9.41834 12.6645 7.99904 12.6645C6.57973 12.6645 5.19239 12.2431 4.01288 11.4537C2.83338 10.6643 1.91483 9.54238 1.3737 8.23029Z" stroke="#62748E" stroke-width="1.33333" stroke-linecap="round" stroke-linejoin="round"/>
<path d="M8 10C9.10457 10 10 9.10457 10 8C10 6.89543 9.10457 6 8 6C6.89543 6 6 6.89543 6 8C6 9.10457 6.89543 10 8 10Z" stroke="#62748E" stroke-width="1.33333" stroke-linecap="round" stroke-linejoin="round"/>
</svg>
