<svg width="16" height="16" viewBox="0 0 16 16" fill="none" xmlns="http://www.w3.org/2000/svg">
<path d="M10.1302 2C10.4817 2.00501 10.817 2.14872 11.0631 2.39984L13.5955 4.93219C13.8466 5.17827 13.9903 5.5136 13.9953 5.86516V12.6625C13.9953 13.016 13.8549 13.355 13.6049 13.6049C13.355 13.8549 13.016 13.9953 12.6625 13.9953H3.33281C2.97933 13.9953 2.64032 13.8549 2.39037 13.6049C2.14042 13.355 2 13.016 2 12.6625V3.33281C2 2.97933 2.14042 2.64032 2.39037 2.39037C2.64032 2.14042 2.97933 2 3.33281 2H10.1302Z" stroke="black" stroke-width="1.33281" stroke-linecap="round" stroke-linejoin="round"/>
<path d="M11.3281 13.9953V9.33047C11.3281 9.15373 11.2579 8.98422 11.1329 8.85925C11.008 8.73427 10.8385 8.66406 10.6617 8.66406H5.33047C5.15373 8.66406 4.98422 8.73427 4.85925 8.85925C4.73427 8.98422 4.66406 9.15373 4.66406 9.33047V13.9953" stroke="black" stroke-width="1.33281" stroke-linecap="round" stroke-linejoin="round"/>
<path d="M4.66406 2V4.66562C4.66406 4.84237 4.73427 5.01187 4.85925 5.13685C4.98422 5.26182 5.15373 5.33203 5.33047 5.33203H9.99531" stroke="black" stroke-width="1.33281" stroke-linecap="round" stroke-linejoin="round"/>
</svg>
