<svg width="16" height="16" viewBox="0 0 16 16" fill="none" xmlns="http://www.w3.org/2000/svg">
<g clip-path="url(#clip0_1320_690)">
<path d="M9.33203 8.6625V5.66367C9.33203 4.66406 9.99844 4.66406 9.99844 3.33125C9.99844 2.80102 9.78781 2.29252 9.41288 1.91759C9.03795 1.54266 8.52944 1.33203 7.99922 1.33203C7.46899 1.33203 6.96048 1.54266 6.58556 1.91759C6.21063 2.29252 6 2.80102 6 3.33125C6 4.66406 6.66641 4.66406 6.66641 5.66367V8.6625" stroke="black" stroke-width="1.33281" stroke-linecap="round" stroke-linejoin="round"/>
<path d="M13.3266 10.3301C13.3266 9.88822 13.151 9.46447 12.8386 9.15203C12.5262 8.83959 12.1024 8.66406 11.6605 8.66406H4.33008C3.88822 8.66406 3.46447 8.83959 3.15203 9.15203C2.83959 9.46447 2.66406 9.88822 2.66406 10.3301V11.3297C2.66406 11.5064 2.73427 11.6759 2.85925 11.8009C2.98422 11.9259 3.15373 11.9961 3.33047 11.9961H12.6602C12.8369 11.9961 13.0064 11.9259 13.1314 11.8009C13.2564 11.6759 13.3266 11.5064 13.3266 11.3297V10.3301Z" stroke="black" stroke-width="1.33281" stroke-linecap="round" stroke-linejoin="round"/>
<path d="M3.32812 14.6602H12.6578" stroke="black" stroke-width="1.33281" stroke-linecap="round" stroke-linejoin="round"/>
</g>
<defs>
<clipPath id="clip0_1320_690">
<rect width="15.9937" height="15.9937" fill="white"/>
</clipPath>
</defs>
</svg>
