<svg width="20" height="20" viewBox="0 0 20 20" fill="none" xmlns="http://www.w3.org/2000/svg">
<path d="M8.32812 9.16089V14.1578" stroke="#62748E" stroke-width="1.66562" stroke-linecap="round" stroke-linejoin="round"/>
<path d="M11.6594 9.16089V14.1578" stroke="#62748E" stroke-width="1.66562" stroke-linecap="round" stroke-linejoin="round"/>
<path d="M15.8234 4.99683V16.6562C15.8234 17.098 15.648 17.5216 15.3356 17.834C15.0232 18.1463 14.5996 18.3218 14.1578 18.3218H5.82969C5.38794 18.3218 4.96428 18.1463 4.65191 17.834C4.33955 17.5216 4.16406 17.098 4.16406 16.6562V4.99683" stroke="#62748E" stroke-width="1.66562" stroke-linecap="round" stroke-linejoin="round"/>
<path d="M2.49841 4.99683H17.489" stroke="#62748E" stroke-width="1.66562" stroke-linecap="round" stroke-linejoin="round"/>
<path d="M6.66248 4.99678V3.33115C6.66248 2.8894 6.83796 2.46574 7.15033 2.15338C7.46269 1.84101 7.88635 1.66553 8.3281 1.66553H11.6594C12.1011 1.66553 12.5248 1.84101 12.8371 2.15338C13.1495 2.46574 13.325 2.8894 13.325 3.33115V4.99678" stroke="#62748E" stroke-width="1.66562" stroke-linecap="round" stroke-linejoin="round"/>
</svg>
